<?xml version="1.0" standalone="no"?>
<!DOCTYPE svg PUBLIC "-//W3C//DTD SVG 20010904//EN"
 "http://www.w3.org/TR/2001/REC-SVG-20010904/DTD/svg10.dtd">
<svg version="1.0" xmlns="http://www.w3.org/2000/svg"
 width="691.000000pt" height="505.000000pt" viewBox="0 0 691.000000 505.000000"
 preserveAspectRatio="xMidYMid meet">

<g transform="translate(0.000000,505.000000) scale(0.100000,-0.100000)"
fill="#202068" stroke="none">
<path d="M3340 3685 c0 -602 3 -904 10 -900 6 3 10 22 10 41 0 32 2 34 36 34
29 0 47 10 95 51 l59 52 2 249 3 250 110 68 c61 37 205 126 320 197 l210 130
0 53 0 53 -410 304 c-225 167 -418 308 -427 314 -17 9 -18 -36 -18 -896z"/>
<path d="M4365 3821 c-33 -21 -170 -106 -305 -189 -135 -83 -278 -171 -317
-197 l-73 -46 0 -264 0 -265 30 0 c26 0 30 -3 30 -29 0 -16 7 -34 15 -41 13
-11 15 20 15 268 0 279 0 281 22 296 12 9 26 16 30 16 5 0 8 -112 8 -248 0
-144 4 -252 10 -258 5 -5 11 -47 13 -94 1 -47 4 73 5 266 2 326 3 352 20 367
42 38 42 34 42 -377 0 -338 2 -395 15 -406 13 -11 15 35 15 408 l0 421 22 15
c12 9 26 16 30 16 4 0 9 -212 10 -472 2 -366 6 -472 16 -476 9 -3 12 98 12
484 0 452 1 488 18 500 9 7 20 14 25 14 4 0 7 -238 7 -528 0 -516 2 -552 29
-552 4 0 5 246 3 547 -2 499 -1 548 14 565 44 48 44 52 44 -581 0 -520 2 -600
15 -611 13 -11 15 58 15 613 l0 626 22 15 c12 8 25 13 29 10 5 -3 9 -302 9
-665 0 -363 2 -665 5 -670 4 -5 9 -9 13 -9 4 0 6 307 5 683 l-2 682 22 17 c12
10 25 18 30 18 4 0 7 -330 7 -734 l0 -734 45 -36 45 -37 0 855 c0 471 -1 856
-2 855 -2 0 -30 -17 -63 -38z"/>
<path d="M3075 3424 c-11 -8 -179 -113 -372 -232 l-353 -217 0 -415 0 -414 45
44 45 44 0 346 0 345 78 46 c42 25 169 103 281 172 112 70 207 127 211 127 9
0 22 -679 14 -750 l-7 -55 37 35 c28 26 33 36 21 38 -13 3 -15 27 -13 200 3
189 4 197 23 197 19 0 20 8 23 253 1 138 -1 252 -5 252 -5 0 -17 -7 -28 -16z"/>
<path d="M3537 2794 c-4 -4 -7 -40 -7 -80 0 -68 1 -72 20 -67 19 5 21 12 18
76 -3 64 -13 88 -31 71z"/>
<path d="M3640 2647 c0 -74 0 -75 40 -111 22 -20 43 -36 46 -36 21 0 44 24 44
47 0 25 -1 25 -18 10 -50 -45 -92 -4 -92 90 0 34 -4 65 -10 68 -6 4 -10 -21
-10 -68z"/>
<path d="M3443 2699 c-8 -8 -13 -40 -13 -83 0 -63 2 -69 15 -55 12 12 15 33
13 83 -2 54 -5 65 -15 55z"/>
<path d="M3730 2622 c0 -12 19 -26 26 -19 2 2 -2 10 -11 17 -9 8 -15 8 -15 2z"/>
<path d="M3330 2591 c-5 -11 -7 -27 -4 -35 5 -12 -1 -16 -24 -16 -24 0 -54
-23 -163 -125 -74 -69 -135 -129 -137 -133 -1 -4 13 -23 32 -41 l35 -34 53 46
c29 26 109 100 178 166 122 117 124 120 93 121 -31 0 -33 2 -33 35 0 39 -14
46 -30 16z"/>
<path d="M3834 2497 c-5 -17 -19 -37 -32 -43 -23 -11 -2 -32 424 -432 415
-390 449 -420 476 -415 38 7 68 -20 68 -61 0 -26 13 -44 68 -99 l68 -67 73 0
c42 0 71 4 69 10 -1 5 -215 208 -474 452 -259 244 -529 498 -601 565 l-129
122 -10 -32z"/>
<path d="M3125 2109 c-231 -220 -440 -420 -464 -444 l-44 -43 73 -4 74 -3 150
145 c83 79 256 246 385 370 128 124 238 228 245 232 10 5 190 -159 877 -803
206 -192 186 -179 270 -179 64 0 71 2 54 14 -15 10 -23 11 -37 2 -28 -17 -52
4 -56 50 -2 21 -9 45 -15 53 -11 13 -497 469 -907 851 -85 80 -156 148 -158
152 -2 5 -9 8 -15 8 -7 0 -201 -180 -432 -401z"/>
<path d="M2704 2312 c-36 -33 -360 -337 -606 -569 l-87 -83 77 0 77 0 63 56
62 56 0 -77 0 -76 48 3 47 3 3 122 3 121 157 149 c86 81 167 156 179 167 22
18 22 18 103 -54 l80 -73 22 19 c65 56 71 40 -61 162 -65 62 -121 112 -122
112 -2 -1 -22 -18 -45 -38z"/>
<path d="M3384 1976 c-3 -7 -4 -40 -2 -72 l3 -59 73 -3 72 -3 0 76 0 75 -70 0
c-50 0 -72 -4 -76 -14z"/>
<path d="M3572 1918 l3 -73 73 -3 72 -3 0 76 0 75 -75 0 -76 0 3 -72z"/>
<path d="M3380 1730 l0 -70 75 0 75 0 0 70 0 70 -75 0 -75 0 0 -70z"/>
<path d="M3570 1730 l0 -70 75 0 75 0 0 70 0 70 -75 0 -75 0 0 -70z"/>
<path d="M6125 1593 c-269 -138 -546 -227 -855 -275 -126 -19 -186 -22 -455
-22 -383 -1 -533 14 -1175 118 -633 103 -1025 136 -1373 116 -100 -6 -199 -13
-219 -17 l-38 -6 0 -58 c0 -45 -3 -59 -14 -59 -8 0 -18 4 -21 10 -4 6 -13 5
-24 -2 -10 -6 -25 -9 -34 -5 -21 8 -32 64 -17 82 17 21 -4 20 -131 -5 -395
-78 -761 -222 -1152 -453 -65 -38 -116 -71 -115 -73 2 -2 47 14 99 35 252 102
585 200 829 245 245 45 407 60 665 60 383 0 594 -29 1285 -179 529 -115 753
-145 1082 -145 220 0 382 15 579 54 393 77 848 300 1092 536 51 49 90 89 87
89 -3 0 -45 -21 -95 -46z"/>
<path d="M1945 1470 c-7 -23 2 -43 16 -35 12 8 12 55 0 55 -5 0 -12 -9 -16
-20z"/>
</g>
</svg>
