<svg width="145" height="221" viewBox="0 0 145 221" fill="none" xmlns="http://www.w3.org/2000/svg">
<path d="M0.8125 4.875L13.8125 89.375L103.188 59.3125L0.8125 4.875Z" fill="#DDE1E8"/>
<path d="M13.1787 85.2471L13.8125 89.3746L103.188 59.3121L98.1825 56.6553C12.2444 85.5478 82.3631 61.969 13.1787 85.2471Z" fill="#C7CDD8"/>
<path d="M0.811249 4.875L55.3706 75.3919L60.9362 99.125L70.7188 70.2325L0.811249 4.875Z" fill="#949AAF"/>
<path d="M41.665 80.0066L60.9375 99.1247L55.3719 75.3916L41.665 80.0066Z" fill="#8288A1"/>
<g clip-path="url(#clip0)">
<path d="M76.1113 147.002C75.2322 146.123 75.2322 144.697 76.1113 143.818C76.9905 142.939 78.4158 142.939 79.2949 143.818C80.174 144.697 80.174 146.123 79.2949 147.002C78.4158 147.881 76.9904 147.881 76.1113 147.002Z" fill="#F85081"/>
<path d="M70.491 166.281C70.0557 165.846 70.0557 165.14 70.491 164.705C70.9263 164.27 71.632 164.27 72.0673 164.705C72.5026 165.14 72.5026 165.846 72.0673 166.281C71.632 166.717 70.9263 166.717 70.491 166.281Z" fill="#CECECE"/>
<path d="M108.604 168.401C108.811 168.194 108.952 167.931 109.009 167.645C109.066 167.359 109.037 167.062 108.925 166.792C108.813 166.522 108.624 166.292 108.382 166.13C108.139 165.967 107.854 165.881 107.562 165.881C107.27 165.881 106.984 165.967 106.742 166.129C106.499 166.291 106.31 166.522 106.198 166.791C106.086 167.061 106.057 167.358 106.114 167.644C106.171 167.931 106.311 168.194 106.518 168.4C106.794 168.677 107.17 168.832 107.561 168.832C107.952 168.832 108.327 168.677 108.604 168.401Z" fill="#FAD31C"/>
<path d="M132.924 213.285C133.297 212.912 133.552 212.436 133.655 211.918C133.758 211.399 133.705 210.862 133.503 210.374C133.301 209.886 132.958 209.469 132.519 209.176C132.08 208.882 131.564 208.726 131.035 208.726C130.507 208.726 129.991 208.882 129.551 209.176C129.112 209.469 128.77 209.886 128.568 210.374C128.366 210.862 128.313 211.399 128.416 211.918C128.519 212.436 128.773 212.912 129.147 213.285C129.648 213.786 130.327 214.067 131.035 214.067C131.744 214.067 132.423 213.786 132.924 213.285Z" fill="#FFC62A"/>
<path d="M108.493 190.746L105.207 183.857C104.959 183.341 104.516 182.944 103.976 182.752C103.436 182.561 102.842 182.591 102.324 182.837C101.808 183.085 101.411 183.527 101.219 184.068C101.028 184.608 101.058 185.201 101.303 185.719L104.59 192.608C104.838 193.125 105.28 193.522 105.821 193.713C106.361 193.905 106.955 193.874 107.473 193.629C107.989 193.381 108.386 192.938 108.577 192.398C108.769 191.858 108.738 191.264 108.493 190.746Z" fill="#9177F2"/>
<path d="M91.6112 169.461L91.6112 163.246C91.6098 162.779 91.4238 162.332 91.0938 162.002C90.7638 161.672 90.3167 161.486 89.85 161.485C89.3834 161.486 88.9362 161.672 88.6063 162.002C88.2763 162.332 88.0903 162.779 88.0889 163.246L88.0895 169.461C88.0907 169.928 88.2766 170.375 88.6066 170.705C88.9366 171.035 89.3839 171.221 89.8506 171.222C90.3171 171.221 90.7641 171.035 91.094 170.705C91.4239 170.375 91.6098 169.928 91.6112 169.461Z" fill="#A5E7CB"/>
<path d="M123.147 194.398H120.04C119.806 194.398 119.583 194.491 119.418 194.656C119.253 194.821 119.16 195.045 119.159 195.278C119.16 195.512 119.253 195.735 119.418 195.9C119.583 196.065 119.806 196.158 120.04 196.159L123.147 196.159C123.381 196.158 123.605 196.065 123.77 195.9C123.935 195.735 124.028 195.512 124.028 195.278C124.028 195.045 123.935 194.821 123.77 194.656C123.605 194.491 123.381 194.398 123.147 194.398Z" fill="#CECECE"/>
</g>
<g clip-path="url(#clip1)">
<path d="M111.399 169.726C110.732 168.677 111.041 167.286 112.089 166.618C113.138 165.95 114.53 166.259 115.197 167.308C115.865 168.357 115.556 169.748 114.507 170.416C113.459 171.084 112.067 170.775 111.399 169.726Z" fill="#F85081"/>
<path d="M122.986 150.902C122.655 150.383 122.808 149.694 123.327 149.364C123.847 149.033 124.536 149.186 124.866 149.705C125.197 150.225 125.044 150.914 124.525 151.244C124.005 151.575 123.316 151.422 122.986 150.902Z" fill="#CECECE"/>
<path d="M88.1158 139.375C87.8695 139.531 87.6751 139.757 87.5573 140.024C87.4395 140.292 87.4036 140.588 87.4541 140.875C87.5046 141.163 87.6392 141.429 87.8409 141.64C88.0427 141.851 88.3025 141.997 88.5875 142.061C88.8724 142.124 89.1698 142.101 89.4419 141.996C89.7141 141.89 89.9488 141.706 90.1163 141.467C90.2839 141.228 90.3768 140.945 90.3832 140.653C90.3897 140.361 90.3095 140.074 90.1527 139.827C89.9426 139.497 89.61 139.264 89.228 139.179C88.846 139.094 88.446 139.165 88.1158 139.375Z" fill="#FAD31C"/>
<path d="M74.1048 90.2867C73.6592 90.5704 73.3077 90.9799 73.0948 91.4633C72.8819 91.9468 72.8172 92.4825 72.9088 93.0028C73.0003 93.523 73.2441 94.0044 73.6093 94.3861C73.9745 94.7678 74.4446 95.0327 74.9603 95.1472C75.476 95.2616 76.0141 95.2206 76.5065 95.0293C76.9988 94.838 77.4234 94.505 77.7265 94.0723C78.0297 93.6397 78.1977 93.127 78.2094 92.5989C78.2211 92.0707 78.0759 91.551 77.7922 91.1054C77.4116 90.508 76.8094 90.0863 76.118 89.9328C75.4265 89.7792 74.7024 89.9065 74.1048 90.2867Z" fill="#FFC62A"/>
<path d="M93.0691 117.586L94.7843 125.023C94.9148 125.581 95.2607 126.065 95.7466 126.368C96.2324 126.672 96.8187 126.771 97.3774 126.644C97.9353 126.514 98.4189 126.168 98.7227 125.682C99.0264 125.196 99.1256 124.61 98.9985 124.051L97.2834 116.614C97.1531 116.056 96.8072 115.572 96.3213 115.268C95.8354 114.964 95.249 114.865 94.6903 114.992C94.1324 115.123 93.6488 115.469 93.345 115.955C93.0413 116.441 92.9421 117.027 93.0691 117.586Z" fill="#9177F2"/>
<path d="M104.941 142.022L103.594 148.089C103.495 148.545 103.58 149.021 103.83 149.415C104.081 149.809 104.477 150.087 104.932 150.19C105.388 150.289 105.865 150.205 106.258 149.954C106.652 149.704 106.93 149.307 107.033 148.852L108.379 142.785C108.479 142.329 108.395 141.852 108.144 141.458C107.894 141.064 107.497 140.786 107.042 140.684C106.586 140.584 106.109 140.669 105.715 140.919C105.322 141.17 105.043 141.567 104.941 142.022Z" fill="#A5E7CB"/>
<path d="M79.5532 110.844L82.5872 111.518C82.8151 111.568 83.0535 111.525 83.2503 111.4C83.4471 111.275 83.5864 111.077 83.6377 110.849C83.6875 110.621 83.6452 110.383 83.5199 110.186C83.3946 109.989 83.1965 109.85 82.9689 109.798L79.9349 109.125C79.7069 109.075 79.4684 109.117 79.2716 109.242C79.0747 109.368 78.9355 109.566 78.8844 109.794C78.8343 110.022 78.8765 110.26 79.0019 110.457C79.1272 110.654 79.3255 110.793 79.5532 110.844Z" fill="#CECECE"/>
</g>
<defs>
<clipPath id="clip0">
<rect width="89.2917" height="26.9293" fill="white" transform="matrix(-0.707107 -0.707107 -0.707107 0.707107 144.25 201.958)"/>
</clipPath>
<clipPath id="clip1">
<rect width="89.2909" height="26.9293" fill="white" transform="matrix(-0.537048 -0.843551 -0.843551 0.537048 131.262 159.75)"/>
</clipPath>
</defs>
</svg>
